<svg version="1.1" id="Layer_1" xmlns="http://www.w3.org/2000/svg" xmlns:xlink="http://www.w3.org/1999/xlink" x="0px" y="0px"
	 width="100%" viewBox="0 0 256 256" enable-background="new 0 0 256 256" xml:space="preserve">
<path fill="#000000" opacity="1.000000" stroke="none" 
	d="
M122.000000,257.000000 
	C81.333336,257.000000 41.166672,257.000000 1.000005,257.000000 
	C1.000004,171.666672 1.000004,86.333351 1.000002,1.000017 
	C86.333321,1.000011 171.666641,1.000011 257.000000,1.000006 
	C257.000000,86.333313 257.000000,171.666626 257.000000,256.999969 
	C212.166672,257.000000 167.333328,257.000000 122.000000,257.000000 
M131.718460,60.402878 
	C110.335297,65.016090 92.574722,75.049965 81.205193,94.462608 
	C76.486275,102.519814 75.575012,110.754189 81.375641,118.750023 
	C83.542282,121.736603 86.430618,124.506104 90.278969,124.256714 
	C93.165321,124.069664 95.235123,121.508705 95.734009,118.483795 
	C97.087456,110.277290 101.683563,103.767090 106.740524,97.607925 
	C110.753769,92.719971 114.882469,87.699966 121.314079,85.825058 
	C122.665276,87.658562 121.967934,88.772636 121.209885,89.921135 
	C112.336189,103.365173 103.722618,116.989388 94.539406,130.218262 
	C85.307983,143.516602 77.182823,157.434921 71.352661,172.469162 
	C66.811272,184.180038 74.197495,193.706802 84.332336,197.172134 
	C89.873436,199.066788 94.541855,195.665115 94.533577,189.842209 
	C94.527725,185.730515 95.268852,181.859390 96.967415,178.239395 
	C100.359802,171.009445 103.996010,163.893433 107.563652,156.746399 
	C109.092064,153.684509 111.098373,152.726013 114.386086,154.707413 
	C122.690620,159.712311 131.460434,159.995621 140.101334,155.864655 
	C164.179443,144.353561 179.342926,125.001915 187.052887,99.923462 
	C191.704987,84.791359 184.170547,70.516769 170.055313,62.993599 
	C157.776810,56.449379 145.271423,58.285637 131.718460,60.402878 
z"/>
<path fill="#000000" opacity="1.000000" stroke="none" 
	d="
M147.087250,123.099022 
	C139.937531,130.888718 131.791763,135.800461 121.475937,136.371658 
	C120.310349,133.308762 121.767746,131.799011 122.765114,130.098251 
	C132.481033,113.530235 143.696487,97.882027 152.805603,80.936119 
	C155.375580,76.155121 159.622101,79.322563 162.559540,80.171196 
	C169.436523,82.157944 171.805145,89.335800 168.562378,95.797256 
	C163.313370,106.256241 156.635223,115.573730 147.087250,123.099022 
z"/>
</svg>